<?xml version="1.0" encoding="utf-8"?>
<!-- Generator: Adobe Illustrator 25.4.1, SVG Export Plug-In . SVG Version: 6.00 Build 0)  -->
<svg version="1.1" id="Layer_1" xmlns="http://www.w3.org/2000/svg" xmlns:xlink="http://www.w3.org/1999/xlink" x="0px" y="0px"
	 viewBox="0 0 720 144" style="enable-background:new 0 0 720 144;" xml:space="preserve">
<style type="text/css">
	.st0{fill:#0099CC;}
	.st1{fill:#065275;}
	.st2{fill:#0D394C;}
	.st3{fill:#009999;}
	.st4{fill:url(#SVGID_1_);}
</style>
<g>
	<path class="st0" d="M237.6,31c2.2-0.5,4.5-0.7,6.8-0.6c6.6,0,12.1,2.5,12.1,10.1c0,7.9-6.7,14.5-17,14.5c-2.2,0-4.3-0.2-6.5-0.6
		L237.6,31z M208.5,96.8h16.6l5.4-28.6c2.3,0.3,4.6,0.5,6.9,0.5c9.7,0,18.8-2.2,25.3-7.3c7-5.3,11-13.6,10.8-22.4
		c0-7.6-3.3-13.2-8.6-16.8c-5.8-4.1-14-5.3-21.1-5.3c-7-0.1-13.9,0.6-20.7,2.1L208.5,96.8z M191,17.4l-15.1,79.4h17L208,17.4H191z
		 M118.9,96.8h47.5l2.8-14.8h-30.5L151,17.4h-17L118.9,96.8z M101.4,17.4L86.3,96.8h17l15.1-79.4H101.4z M26.5,96.8h17l6-31.9H77
		l2.8-14.4H52.2l3.7-18.6h29.4l2.8-14.5H41.6L26.5,96.8z"/>
	<path class="st1" d="M625.5,93.1c4.5,2.3,13.8,4.9,23.3,4.9c23.2,0,33.8-11.7,33.8-25.3c0-11.1-6.4-18.6-20.6-23.9
		c-10-3.8-14.2-5.3-14.2-9.3c0-3.5,3.5-5.9,10-5.9c5.9,0,11.8,1.3,17.2,3.7l4.5-17.1c-5.2-2.2-12-4-21.4-4
		c-20,0-31.9,10.8-31.9,24.8c0,11.8,9,19.1,22.4,23.9c9,3.1,12.5,5.2,12.5,9.1s-3.5,6.5-10.8,6.5c-7.2-0.1-14.2-1.8-20.6-5
		L625.5,93.1z M552,96.8h21.1v-24l6.4-8.1l16.7,32.2h24.6l-26.1-45.6l25.2-33.8h-26.1l-15.3,25c-1.7,2.8-3.4,5.8-5.1,8.7h-0.2V17.4
		H552V96.8z M500.4,33.1c2.4-0.4,4.8-0.6,7.2-0.5c7.1,0,11,3.4,11,9.3s-4.6,9.8-12.6,9.8h-5.5L500.4,33.1z M479.3,96.8h21.1V67h3.4
		c6.6,0,9.5,2,11.7,11.4c2.2,9.9,4.4,16,5.5,18.4h21.7c-1.5-3.1-4.1-14.6-6.5-22.7c-2-6.8-5-11.9-10.1-14.2v-0.4
		c6.1-2.3,13.5-9.3,13.5-19.2c0-7.7-2.7-13.3-7.8-17.2c-6-4.6-14.7-6.2-26.9-6.2c-8.6,0-17.2,0.5-25.7,1.8L479.3,96.8z M315.7,96.8
		l6-31.1c1.4-6.9,2.5-14.5,3.8-23.8h0.2c1.1,9.4,2.1,16.8,3.3,23.8l5.3,31.1h23.2L377,17.4h-21.5l-4.7,29.1
		c-1.4,9.4-2.8,18.7-4,27.7h-0.2c-1.1-9-2.1-17.1-3.5-26.3l-5-30.5h-22.7l-5.1,29.1c-1.8,9.8-3.4,19.3-4.7,28.3h-0.2
		c-1.2-8.2-2.6-18.7-4-27.9l-4.6-29.4h-22.8l18.2,79.4L315.7,96.8z"/>
	<path class="st2" d="M418,6.8c-1.4,0-2.7,0.9-3.1,2.2l-3.3,9.8c-1.3,0.5-2.6,1-3.9,1.6l-9.3-4.6c-1.2-0.6-2.7-0.4-3.7,0.6l-9.1,9.1
		c-1,1-1.2,2.5-0.6,3.7l4.6,9.2c-0.6,1.3-1.2,2.6-1.6,3.9l-9.8,3.3c-1.3,0.4-2.2,1.7-2.2,3v12.9c0,1.4,0.9,2.6,2.2,3.1L388,68
		c0.5,1.3,1,2.6,1.6,3.8l-4.6,9.3c-0.6,1.2-0.4,2.7,0.6,3.7l9.1,9.1c1,1,2.5,1.2,3.7,0.6l9.3-4.6c1.3,0.6,2.6,1.1,3.9,1.6l3.3,9.8
		c0.4,1.3,1.7,2.2,3.1,2.2h12.9c1.4,0,2.6-0.9,3.1-2.2l3.3-9.9c1.3-0.5,2.6-1,3.9-1.6l9.3,4.7c1.2,0.6,2.7,0.4,3.7-0.6l9.1-9.1
		c1-1,1.2-2.5,0.6-3.7l-4.6-9.3c0.6-1.3,1.1-2.6,1.6-3.9l9.8-3.3c1.3-0.4,2.2-1.7,2.2-3.1V48.7c0-1.4-0.9-2.6-2.2-3.1l-9.8-3.3
		c-0.5-1.3-1-2.6-1.6-3.9l4.6-9.3c0.6-1.2,0.4-2.7-0.6-3.7l-9.1-9.1c-1-1-2.5-1.2-3.7-0.6l-9.2,4.6c-1.3-0.6-2.6-1.1-3.9-1.6
		L433.9,9c-0.4-1.3-1.7-2.2-3.1-2.2L418,6.8z M424.4,32.6c12.5,0,22.6,10.1,22.6,22.6S437,77.8,424.5,77.8
		c-12.5,0-22.6-10.1-22.6-22.6c0,0,0,0,0,0C401.9,42.7,411.9,32.7,424.4,32.6L424.4,32.6z"/>
	<path class="st3" d="M442.5,54.4c-0.5-8.2-7.6-14.5-15.8-14c-7.8,0.5-13.9,6.9-14,14.7h-6.3c-0.1-10,7.9-18.2,17.9-18.3
		C434.1,36.8,442.2,44.6,442.5,54.4z"/>
	<path class="st2" d="M427.5,60.5l-10.1-11.4l6.5,13.7c-0.9,2,0,4.3,2,5.2c2,0.9,4.3,0,5.2-2c0.9-2,0-4.3-2-5.2
		C428.6,60.6,428,60.5,427.5,60.5z"/>
	
		<linearGradient id="SVGID_1_" gradientUnits="userSpaceOnUse" x1="-238.6306" y1="495.6258" x2="-237.6306" y2="495.6258" gradientTransform="matrix(646.94 0 0 -646.94 154414.5938 320762.2812)">
		<stop  offset="0" style="stop-color:#01B6D9"/>
		<stop  offset="0.23" style="stop-color:#019DC6"/>
		<stop  offset="0.75" style="stop-color:#00699D"/>
		<stop  offset="1" style="stop-color:#00558D"/>
	</linearGradient>
	<polygon class="st4" points="34.9,115.7 287.8,115.7 302.6,130.6 681.9,130.6 681.9,128.6 303.4,128.6 288.6,113.7 34.9,113.7 	"/>
	<path class="st1" d="M45.9,115c-0.1,5.9-5,10.6-10.9,10.5c-5.8,0.3-10.7-4.2-10.9-10c-0.3-5.8,4.2-10.7,10-10.9c0.3,0,0.6,0,0.9,0
		C40.8,104.4,45.7,109.1,45.9,115z"/>
	<polyline class="st1" points="314,114.4 658,114.4 658,112.4 314,112.4 	"/>
	<ellipse class="st1" cx="654.5" cy="112.8" rx="8.2" ry="7.8"/>
	<polyline class="st1" points="284.5,128.1 60.2,128.1 60.2,130.1 284.5,130.1 	"/>
	<ellipse class="st1" cx="59.6" cy="129.8" rx="8.2" ry="7.9"/>
</g>
</svg>
